<svg xmlns="http://www.w3.org/2000/svg" fill="none" viewBox="0 0 19 35" height="35" width="19">
<path fill="white" d="M18.8738 23.34C18.8738 25.188 18.1658 26.76 16.7498 28.056C15.3338 29.328 13.2578 30.036 10.5218 30.18V34.32H8.72178V30.216C6.96978 30.12 5.31378 29.784 3.75378 29.208C2.21778 28.608 1.00578 27.852 0.117781 26.94L1.16178 24.888C2.00178 25.704 3.09378 26.388 4.43778 26.94C5.80578 27.492 7.23378 27.816 8.72178 27.912V18.444C7.06578 18.036 5.68578 17.604 4.58178 17.148C3.47778 16.668 2.55378 15.984 1.80978 15.096C1.08978 14.184 0.729781 12.984 0.729781 11.496C0.729781 9.648 1.40178 8.1 2.74578 6.852C4.08978 5.58 6.08178 4.836 8.72178 4.62V0.479998H10.5218V4.584C11.8898 4.632 13.2098 4.86 14.4818 5.268C15.7778 5.652 16.8938 6.168 17.8298 6.816L16.9298 8.94C15.9458 8.316 14.9018 7.824 13.7978 7.464C12.6938 7.104 11.6018 6.9 10.5218 6.852V16.392C12.2978 16.824 13.7498 17.268 14.8778 17.724C16.0058 18.156 16.9538 18.828 17.7218 19.74C18.4898 20.652 18.8738 21.852 18.8738 23.34ZM3.35778 11.424C3.35778 12.672 3.81378 13.62 4.72578 14.268C5.66178 14.916 6.99378 15.468 8.72178 15.924V6.924C6.94578 7.068 5.60178 7.56 4.68978 8.4C3.80178 9.216 3.35778 10.224 3.35778 11.424ZM10.5218 27.912C12.4178 27.768 13.8458 27.3 14.8058 26.508C15.7658 25.716 16.2458 24.708 16.2458 23.484C16.2458 22.188 15.7538 21.216 14.7698 20.568C13.7858 19.92 12.3698 19.368 10.5218 18.912V27.912Z"></path>
</svg>
