<svg xmlns="http://www.w3.org/2000/svg" fill="none" viewBox="0 0 37 37" height="37" width="37">
<path stroke-width="0.6" stroke="white" fill="white" d="M18.4913 35.9986C18.3761 35.9986 18.2594 35.9709 18.1544 35.9155L1.39522 27.1655C1.1546 27.0401 1.00293 26.7907 1.00293 26.5195V10.1132C1.00293 9.86091 1.13418 9.62612 1.34855 9.49341C1.56293 9.36071 1.83272 9.34904 2.0573 9.46133L18.8165 17.8468C19.0629 17.9707 19.219 18.223 19.219 18.4986V35.2695C19.219 35.5247 19.0863 35.7609 18.8675 35.8936C18.7538 35.9636 18.6225 35.9986 18.4913 35.9986ZM2.46126 26.0776L17.7621 34.0663V18.9493L2.46126 11.293V26.0776Z"></path>
<path stroke-width="0.6" stroke="white" fill="white" d="M18.5148 35.9985C18.3836 35.9985 18.2523 35.9635 18.1371 35.8935C17.9198 35.7608 17.7856 35.5245 17.7856 35.2693V18.4985C17.7856 18.2229 17.9417 17.9706 18.1881 17.8466L34.9473 9.4612C35.1704 9.34745 35.4417 9.35911 35.6561 9.49328C35.8719 9.62599 36.0031 9.86078 36.0031 10.1131V26.5193C36.0031 26.7906 35.8515 27.0399 35.6109 27.1654L18.8517 35.9154C18.7467 35.9708 18.63 35.9985 18.5148 35.9985V35.9985ZM19.244 18.9491V34.0662L34.5448 26.0774V11.2929L19.244 18.9491ZM35.274 26.5193H35.2886H35.274Z"></path>
<path stroke-width="0.6" stroke="white" fill="white" d="M1.73068 10.843C1.46235 10.843 1.20568 10.6957 1.07735 10.4405C0.896516 10.0803 1.04381 9.64281 1.40402 9.46198L18.1865 1.07656C18.3921 0.974479 18.6342 0.974479 18.8384 1.07656L35.5975 9.46198C35.9578 9.64281 36.1036 10.0803 35.9242 10.4405C35.7434 10.8007 35.3073 10.9451 34.9457 10.7672L18.5132 2.54365L2.05735 10.7657C1.95235 10.8182 1.84152 10.843 1.73068 10.843V10.843Z"></path>
<path stroke-width="0.6" stroke="white" fill="white" d="M27.2528 22.8736C26.8503 22.8736 26.5237 22.5469 26.5237 22.1444V14.5742L10.167 6.39007C9.80681 6.21069 9.66097 5.77173 9.84181 5.41153C10.0226 5.05132 10.4601 4.90694 10.8203 5.08486L27.5795 13.4703C27.826 13.5957 27.982 13.848 27.982 14.1236V22.1444C27.982 22.5469 27.6553 22.8736 27.2528 22.8736V22.8736Z"></path>
</svg>
